P3
4 4
255
0 0 0 20 20 20 0 0 0 85 85 85 
0 0 0 37 37 37 0 0 0 0 0 0 
0 0 0 0 0 0 22 22 22 0 0 0 
85 85 85 0 0 0 0 0 0 100 100 100 
